HIERARCHY
ROOT Hips
{
	OFFSET 0.000000 0.000000 0.000000
	CHANNELS 6 Xposition Yposition Zposition Zrotation Yrotation Xrotation 
	JOINT LeftUpLeg
	{
		OFFSET 1.363060 -1.794630 0.839290
		CHANNELS 3 Zrotation Yrotation Xrotation
		JOINT LeftLeg
		{
			OFFSET 2.448110 -6.726130 0.000000
			CHANNELS 3 Zrotation Yrotation Xrotation
			JOINT LeftFoot
			{
				OFFSET 2.562200 -7.039590 0.000000
				CHANNELS 3 Zrotation Yrotation Xrotation
				JOINT LeftToeBase
				{
					OFFSET 0.157640 -0.433110 2.322550
					CHANNELS 3 Zrotation Yrotation Xrotation
				}
			}
		}
	}
	JOINT RightUpLeg
	{
		OFFSET -1.305520 -1.794630 0.839290
		CHANNELS 3 Zrotation Yrotation Xrotation
		JOINT RightLeg
		{
			OFFSET -2.542530 -6.985550 0.000000
			CHANNELS 3 Zrotation Yrotation Xrotation
			JOINT RightFoot
			{
				OFFSET -2.568260 -7.056230 0.000000
				CHANNELS 3 Zrotation Yrotation Xrotation
				JOINT RightToeBase
				{
					OFFSET -0.164730 -0.452590 2.363150
					CHANNELS 3 Zrotation Yrotation Xrotation
				}
			}
		}
	}
	JOINT Spine
	{
		OFFSET 0.028270 2.035590 -0.193380
		CHANNELS 3 Zrotation Yrotation Xrotation
		JOINT Spine1
		{
			OFFSET 0.056720 2.048850 -0.042750
			CHANNELS 3 Zrotation Yrotation Xrotation
			JOINT Neck1
			{
				OFFSET -0.054170 1.746240 0.172020
				CHANNELS 3 Zrotation Yrotation Xrotation
				JOINT Head
				{
					OFFSET 0.104070 1.761360 -0.123970
					CHANNELS 3 Zrotation Yrotation Xrotation
				}
			}
			JOINT LeftArm
			{
				OFFSET 3.362410 1.200890 -0.311210
				CHANNELS 3 Zrotation Yrotation Xrotation
				JOINT LeftForeArm
				{
					OFFSET 4.983000 -0.000000 -0.000000
					CHANNELS 3 Zrotation Yrotation Xrotation
					JOINT LeftHand
					{
						OFFSET 3.483560 -0.000000 -0.000000
						CHANNELS 3 Zrotation Yrotation Xrotation
						JOINT LeftHandIndex1
						{
							OFFSET 0.715260 -0.000000 -0.000000
							CHANNELS 3 Zrotation Yrotation Xrotation
						}
					}
				}
			}
			JOINT RightArm
			{
				OFFSET -3.136600 1.374050 -0.404650
				CHANNELS 3 Zrotation Yrotation Xrotation
				JOINT RightForeArm
				{
					OFFSET -5.241900 -0.000000 -0.000000
					CHANNELS 3 Zrotation Yrotation Xrotation
					JOINT RightHand
					{
						OFFSET -3.444170 -0.000000 -0.000000
						CHANNELS 3 Zrotation Yrotation Xrotation
						JOINT RightHandIndex1
						{
							OFFSET -0.622530 -0.000000 -0.000000
							CHANNELS 3 Zrotation Yrotation Xrotation
						}
					}
				}
			}
		}
	}
}
MOTION
Frames: 15
Frame Time: 0.016667
2.091145 16.936933 82.383675 -7.255701 6.132216 -5.765993 -15.189670 6.343706 -30.714900 -1.817581 7.043287 19.249695 -2.216300 14.985684 27.570905 -0.341642 -3.471405 -2.132987 35.243535 -11.560915 -33.627869 -29.853302 -28.851977 78.099720 -16.646980 -18.003797 33.544200 1.109179 6.181538 26.722824 9.328575 2.193394 5.845619 -3.450816 -0.694878 3.189394 4.578497 -4.419752 -2.990277 2.975498 -1.380931 4.949506 -72.565867 -11.753382 53.013340 44.705386 -51.538913 -21.970562 -5.420972 -1.567188 -19.942982 16.124501 16.967817 8.568944 77.161925 12.528621 82.234697 -54.251315 55.427366 -29.445470 0.103079 -3.799937 -10.483218 -10.680293 5.550528 -1.638434 
2.158394 17.045513 82.699760 -6.832356 5.124843 -5.067117 -15.724747 7.146117 -30.034175 -1.510711 6.554111 18.868088 -2.461326 15.190045 26.395542 -0.528466 -3.814807 -1.701601 33.122643 -10.923001 -32.165008 -24.017053 -28.459026 73.395245 -14.450321 -12.841674 24.407600 4.465531 0.169619 26.663613 8.647621 2.218057 5.321119 -2.905930 -0.278978 3.183944 4.384501 -4.187369 -2.999657 3.041993 -1.523677 4.822684 -72.557669 -12.112797 51.966941 40.459990 -50.872145 -18.319665 -4.232320 -1.365614 -19.977756 15.129012 18.049818 8.480949 75.366172 11.656140 78.468251 -46.573001 54.719192 -24.403917 0.233701 -4.082002 -10.735355 -10.753081 4.947415 -2.043784 
2.234191 17.149663 82.982933 -6.584475 4.097066 -4.476173 -15.964389 7.869942 -29.524489 -1.340359 6.394575 18.715830 -2.332594 15.209931 25.664435 -0.821376 -3.750586 -1.263637 29.540776 -8.725551 -31.933768 -18.552895 -26.340311 68.011028 -11.440177 -4.540097 15.746292 9.034702 -4.871400 22.979513 8.464560 2.377120 4.576620 -2.600155 -0.227680 3.402565 4.102385 -3.675501 -2.997098 2.907011 -1.536908 5.083044 -72.534739 -11.166845 50.882591 38.559040 -48.899848 -15.944665 -4.205654 -1.808364 -20.051883 15.029302 19.039663 8.719355 73.554533 10.729501 74.016235 -39.056926 53.292249 -19.377082 0.642274 -4.407985 -10.589564 -11.986487 4.612393 -1.889639 
2.297020 17.255783 83.248283 -6.530137 3.163250 -3.690858 -16.047100 8.206292 -29.129535 -1.064366 6.151007 18.383255 -2.426948 15.626997 24.984075 -0.928604 -3.648483 -1.107039 28.278858 -5.346396 -29.568159 -15.113893 -21.054194 60.440587 -4.569370 -1.083040 4.122210 11.002874 0.097375 21.091110 8.261796 2.389148 3.787684 -2.232857 -0.057741 3.582431 4.001547 -3.171119 -2.948069 2.810357 -1.567222 5.136836 -72.750441 -11.063089 50.097864 35.280942 -46.120917 -13.292364 -4.349712 -1.378396 -19.500702 14.722337 19.848234 8.158313 72.368881 10.189457 69.027576 -31.784920 51.177401 -13.889300 0.761752 -4.463069 -10.658515 -12.145613 3.947754 -1.502713 
2.350603 17.350709 83.498772 -6.202717 2.544250 -3.048891 -16.442683 8.197476 -28.620121 -0.689664 6.107862 18.105239 -2.228064 15.853990 24.569249 -0.988019 -3.468774 -0.802095 26.143806 -2.968871 -29.649042 -10.034031 -16.142717 50.640278 -1.528468 -2.570346 -2.238639 8.977634 2.229599 18.006955 7.753349 2.062986 2.769107 -1.875819 0.108044 3.816701 3.661649 -2.590221 -2.601357 2.815907 -1.478970 5.191440 -72.632945 -9.783540 49.523724 33.249193 -43.828219 -11.869159 -3.939237 -1.110463 -18.770401 14.506821 19.988197 7.844866 72.293213 9.262645 64.722900 -25.803418 47.922774 -9.123466 0.975329 -4.332309 -10.258296 -12.445645 3.476998 -1.414695 
2.389306 17.434003 83.746994 -5.865095 2.230575 -2.379253 -16.938061 7.953172 -28.108260 -0.234484 6.022951 17.773230 -2.156770 16.068329 24.049249 -1.112416 -3.388847 -0.892779 23.811163 -1.116633 -27.972714 -4.005889 -10.737826 42.044052 0.736519 -4.480896 -1.383687 7.476865 0.412271 13.305509 6.658349 1.710752 1.881280 -1.046634 0.101965 4.065388 3.356012 -2.150109 -2.474261 2.793718 -1.416222 5.068665 -73.192949 -9.157287 49.518005 29.807937 -40.246557 -9.786986 -3.632234 -1.310349 -18.118880 14.775987 20.714003 7.195146 72.669043 8.211390 60.833531 -22.685488 44.510641 -6.232372 0.605696 -3.712631 -9.923759 -12.415178 2.361855 -1.561952 
2.417633 17.516576 83.998886 -5.317808 1.911542 -1.732637 -17.557541 7.633765 -27.395149 0.148298 6.020467 17.216456 -1.988841 16.242679 23.641012 -1.028216 -3.188807 -0.915052 21.866211 0.908806 -24.790300 -1.052048 -9.118582 35.037470 0.360743 -4.868610 0.704653 7.163956 -1.029492 11.666446 5.419608 1.434357 0.904750 -0.209913 -0.063244 4.236665 2.866210 -1.530064 -2.141387 2.746583 -1.370462 5.040175 -73.776993 -7.794582 49.547178 28.138239 -37.639365 -9.449768 -3.754736 -1.199241 -17.905206 15.034852 20.744881 6.638479 73.409657 7.270600 57.295201 -20.460530 40.902960 -4.677291 1.038797 -3.380862 -9.198769 -12.894956 1.857204 -2.113151 
2.440405 17.588735 84.240784 -4.713820 2.401850 -1.144006 -18.345328 7.163623 -26.636985 0.251940 5.817296 16.627429 -1.989408 16.223358 23.301461 -1.097601 -3.329247 -1.181816 21.255856 2.781660 -23.386045 0.413160 -7.604136 30.988988 0.793584 -6.950223 3.298765 4.705809 -3.876187 14.287832 4.374870 0.945710 -0.066482 0.294532 -0.619925 4.385861 2.550725 -1.058633 -1.787834 2.589044 -1.349767 5.015966 -74.505373 -6.806292 50.217915 25.724737 -34.723361 -8.795811 -3.305797 -1.651606 -17.366098 15.556008 20.856676 6.144133 73.977752 5.830907 54.420452 -18.218633 37.399822 -3.813425 0.233182 -2.650987 -8.435524 -12.462387 1.305781 -2.158796 
2.454295 17.664430 84.488373 -3.961191 2.950139 -0.623020 -19.131410 6.793908 -25.829258 0.150519 5.757503 16.085448 -1.846468 16.037739 23.273301 -0.954781 -3.178208 -1.314829 20.663359 3.366842 -22.026688 0.795450 -6.707980 27.396319 2.074159 -8.525413 6.913632 4.486384 -4.468637 17.817096 3.243876 0.388105 -0.818907 0.765793 -1.095046 4.380032 2.178911 -0.669575 -1.605061 2.592034 -1.295726 5.056278 -74.934092 -5.543627 51.073007 24.437728 -32.673677 -8.904363 -3.344927 -1.752146 -17.270695 15.771862 20.674487 5.710242 74.401404 4.548918 51.468841 -16.641059 34.314663 -3.419492 0.104759 -2.049940 -7.176522 -12.467148 1.101073 -2.454224 
2.455510 17.738618 84.733795 -3.406801 3.491074 -0.142601 -19.619272 6.476397 -24.947703 0.020549 5.802485 15.419489 -1.743125 15.709555 23.235063 -0.954077 -3.414547 -1.798260 20.028613 3.514323 -21.143541 1.294426 -6.573461 25.150443 2.541707 -9.578978 10.338180 4.151581 -4.756455 19.668500 2.377913 -0.117029 -1.583029 1.132561 -1.501994 4.378612 1.883990 -0.364946 -1.287084 2.493236 -1.320920 5.090476 -75.045171 -4.430196 51.708455 23.247237 -30.896207 -9.057448 -3.281676 -2.215043 -16.894751 16.114903 20.368955 5.317770 74.594265 3.173789 48.485114 -14.784763 31.308118 -2.956142 0.195559 -1.359678 -6.403172 -11.898139 1.170156 -2.399624 
2.451154 17.810148 84.976517 -2.765491 4.054335 0.341350 -20.073175 6.298750 -24.192283 -0.317588 5.975853 14.871997 -1.461836 15.146670 23.474302 -0.667668 -3.404212 -2.077755 19.368707 3.617281 -20.099620 1.936880 -5.927963 23.414864 2.631819 -11.140405 12.875251 4.404222 -5.344856 21.518971 1.418231 -0.520910 -2.468690 1.428502 -1.872877 4.448744 1.609586 -0.208113 -0.912883 2.451416 -1.304667 5.053281 -74.983525 -3.316056 52.605096 23.137137 -30.188495 -9.441774 -3.738877 -2.233241 -16.690003 16.270658 20.282715 4.971460 74.575572 1.963999 45.512168 -13.355169 28.784053 -2.538880 0.412667 -0.885713 -4.795588 -11.515544 1.353025 -2.639492 
2.448191 17.882005 85.218529 -2.540471 4.793947 0.663412 -19.995002 6.264181 -23.336923 -0.878114 6.096246 14.367593 -1.320903 14.537049 23.644829 -0.545784 -3.565134 -2.635159 19.195580 4.126079 -19.183390 1.497313 -6.275595 22.977580 2.618978 -11.820201 12.649490 3.955831 -5.865385 22.601514 1.297597 -0.915235 -3.202001 1.313355 -2.209061 4.486084 1.525657 -0.139430 -0.476682 2.385101 -1.380649 5.051420 -74.815260 -2.452508 53.351142 22.781780 -29.549720 -9.371432 -3.855832 -2.168661 -16.502643 16.282289 19.898385 4.601225 74.598762 0.664129 42.970028 -12.315142 26.389942 -2.289726 0.855473 -0.367061 -3.536847 -10.735187 1.508808 -2.711407 
2.441396 17.950479 85.452942 -2.198517 5.420082 0.968481 -19.953731 6.337568 -22.682280 -1.483325 6.366745 14.122189 -1.179243 13.912895 24.017285 -0.166699 -3.562383 -2.946543 19.132126 4.333956 -18.056145 0.842298 -6.537734 22.031539 2.178807 -11.842784 12.571140 3.487401 -7.126057 23.201914 0.971891 -1.175298 -3.895151 1.245353 -2.474648 4.498669 1.461571 -0.153012 -0.051789 2.341620 -1.407103 5.083020 -74.590271 -1.746430 53.911733 22.455407 -29.265469 -9.339522 -4.155098 -2.190125 -16.072323 16.212160 19.865068 4.355604 74.322391 -0.573678 40.513521 -11.264809 24.393202 -1.937347 0.819858 -0.485942 -1.603429 -9.941897 1.575514 -2.754550 
2.440603 18.019300 85.678757 -1.939764 6.294320 1.250980 -19.869705 6.106266 -21.962983 -1.984067 6.669694 13.854052 -0.976319 13.287087 24.502264 -0.149575 -3.627203 -3.155170 19.428630 4.307689 -17.227393 -0.298603 -6.651205 21.510384 1.961783 -12.180284 12.672263 2.656947 -7.842641 23.704053 0.773391 -1.590127 -4.571632 1.138009 -2.668476 4.432594 1.390692 -0.296948 0.464293 2.253790 -1.505578 5.171935 -74.388187 -1.074881 54.252441 21.861482 -28.968220 -8.719152 -4.059446 -2.146516 -15.756187 16.214507 19.459479 4.195216 74.285721 -1.790783 38.251739 -10.572197 22.579374 -1.812705 1.055326 -0.218143 -0.029905 -9.547820 1.833306 -2.588058 
2.436525 18.094537 85.892525 -1.608524 7.145324 1.559521 -19.875692 5.949320 -21.406069 -2.417839 7.093521 13.636557 -0.634378 12.499810 25.380079 0.138673 -3.639899 -3.170657 19.538862 4.331678 -16.417216 -1.191167 -6.834405 20.920375 2.285809 -12.825620 12.666220 1.714722 -8.910579 24.603740 0.502905 -1.986011 -5.284622 1.069333 -2.799127 4.449106 1.306765 -0.567453 1.004033 2.170099 -1.505186 5.220309 -74.353216 -0.661754 53.994842 21.359971 -28.433646 -8.251757 -4.345626 -1.995978 -15.000160 16.187940 19.527938 4.060220 74.027619 -3.114637 36.105195 -9.808185 21.521764 -1.591900 0.914804 -0.570267 1.505150 -8.956507 1.711704 -2.503655 
